<?xml version="1.0" standalone="no"?>
<!DOCTYPE svg PUBLIC "-//W3C//DTD SVG 20010904//EN"
 "http://www.w3.org/TR/2001/REC-SVG-20010904/DTD/svg10.dtd">
<svg version="1.0" xmlns="http://www.w3.org/2000/svg"
 width="1244.000000pt" height="700.000000pt" viewBox="0 0 1244.000000 700.000000"
 preserveAspectRatio="xMidYMid meet">

<g transform="translate(0.000000,700.000000) scale(0.100000,-0.100000)"
fill="#000000" stroke="none">
<path d="M9455 6483 c-20 -4 -69 -92 -100 -183 -9 -25 -27 -62 -40 -82 -14
-21 -25 -41 -25 -44 0 -4 -21 -42 -46 -85 -29 -50 -53 -79 -64 -79 -19 0 -42
-43 -60 -108 -8 -33 -20 -48 -50 -67 -26 -17 -40 -33 -40 -47 0 -19 -21 -76
-132 -358 -23 -59 -28 -84 -24 -119 4 -27 2 -49 -6 -58 -6 -8 -17 -51 -24 -96
-24 -162 -36 -223 -54 -282 -23 -78 -26 -305 -5 -406 8 -39 15 -105 15 -148 0
-60 6 -95 26 -146 22 -61 24 -77 18 -149 -3 -45 -17 -115 -29 -156 -13 -41
-23 -87 -23 -101 0 -14 -12 -65 -28 -113 l-29 -88 30 -24 c16 -13 55 -36 86
-52 l57 -28 -23 -64 c-49 -141 -80 -196 -136 -240 -56 -45 -175 -104 -269
-135 -96 -31 -325 -122 -381 -151 -30 -16 -84 -59 -121 -97 -55 -55 -71 -78
-84 -123 -31 -108 7 -187 158 -325 57 -52 109 -100 117 -107 45 -42 168 -134
331 -246 170 -118 296 -223 322 -270 7 -14 6 -22 -6 -34 -9 -10 -16 -11 -16
-5 0 8 -43 10 -153 7 -120 -4 -180 0 -273 14 -70 12 -153 18 -201 16 -45 -2
-85 1 -87 5 -7 10 -125 3 -196 -12 -30 -6 -83 -10 -116 -8 -42 2 -71 -2 -92
-13 -20 -10 -56 -16 -101 -16 -38 0 -81 -4 -94 -9 -14 -5 -60 -11 -103 -12
-44 -1 -94 -6 -113 -11 -18 -5 -54 -11 -80 -13 -51 -4 -60 -6 -111 -23 -34
-12 -286 -10 -355 3 -16 3 -72 3 -123 -1 l-93 -6 3 -31 c2 -22 10 -35 26 -42
12 -5 22 -15 22 -22 0 -7 8 -13 17 -13 13 0 14 -3 5 -12 -14 -14 -121 -11
-139 3 -6 6 -20 9 -30 7 -10 -2 -27 8 -39 21 -13 15 -33 25 -55 27 -63 4 -119
13 -129 19 -6 4 -54 8 -108 11 -53 2 -131 7 -172 10 -41 3 -136 9 -210 14 -74
5 -182 14 -240 20 -101 9 -107 9 -168 -15 -34 -14 -69 -25 -77 -25 -8 0 -15
-4 -15 -8 0 -5 -20 -23 -45 -41 -41 -30 -56 -34 -153 -43 -59 -5 -111 -14
-117 -19 -6 -6 -5 -17 4 -31 12 -19 11 -20 -6 -13 -63 25 -75 28 -83 15 -6 -9
-11 -7 -19 9 -7 11 -21 21 -32 21 -11 0 -18 -4 -14 -9 3 -5 1 -12 -5 -16 -5
-3 -10 -1 -10 4 0 6 -21 2 -50 -9 -28 -11 -64 -20 -80 -20 -17 0 -30 -4 -30
-9 0 -6 -21 -13 -47 -16 -27 -4 -75 -13 -108 -22 -33 -8 -85 -16 -115 -18 -73
-4 -130 -15 -130 -25 0 -5 -19 -11 -42 -15 -53 -8 -140 -34 -153 -46 -5 -5
-27 -9 -50 -9 -23 0 -46 -5 -52 -11 -14 -14 -193 -13 -251 2 -34 8 -64 9 -104
2 -34 -6 -81 -6 -115 -1 -32 4 -89 5 -128 2 -50 -4 -66 -3 -55 5 11 8 5 9 -24
4 -28 -4 -37 -3 -32 5 7 11 -25 19 -49 11 -27 -7 -59 1 -83 23 -25 22 -76 59
-140 100 -15 10 -55 31 -90 48 -35 16 -70 37 -78 45 -9 9 -29 22 -45 30 -16 9
-29 22 -29 30 0 9 -6 12 -15 9 -9 -4 -32 5 -53 19 -41 28 -88 42 -177 53 -33
3 -69 8 -80 10 -24 5 -70 12 -107 18 -15 3 -32 7 -37 10 -5 4 -11 0 -14 -6 -3
-10 -9 -10 -29 0 -14 8 -41 15 -59 16 -19 2 -65 10 -104 18 -91 20 -141 19
-137 -4 1 -10 -8 -20 -25 -25 -19 -7 -28 -16 -28 -33 0 -30 -39 -37 -58 -10
-7 10 -25 24 -39 29 -24 9 -27 7 -30 -12 -4 -31 -38 -35 -39 -5 -1 17 -3 18
-6 5 -5 -21 -23 -23 -23 -2 0 8 -7 15 -15 15 -8 0 -14 -3 -13 -8 4 -10 -72
-86 -78 -79 -3 3 0 14 8 26 10 16 10 23 0 33 -6 6 -12 22 -12 35 0 18 -8 24
-41 33 -49 13 -69 8 -69 -20 0 -11 -4 -20 -10 -20 -5 0 -10 -7 -10 -16 0 -11
-5 -14 -16 -10 -9 3 -22 6 -30 6 -8 0 -14 5 -14 10 0 6 14 10 30 10 20 0 30 5
30 15 0 11 -9 15 -29 13 -16 -1 -29 -7 -28 -12 1 -5 -7 -12 -18 -14 -11 -2
-24 -11 -30 -19 -9 -12 -14 -11 -33 5 -12 11 -22 24 -22 31 0 16 -20 14 -26
-4 -5 -11 -22 -15 -64 -15 -56 0 -58 -1 -69 -31 -6 -17 -15 -28 -20 -25 -5 3
-11 -1 -14 -8 -3 -8 -1 -17 6 -20 7 -2 0 -4 -15 -3 -15 1 -25 3 -22 6 2 3 -10
11 -28 19 -24 11 -85 16 -223 18 -104 2 -248 8 -320 13 -71 6 -187 13 -257 16
l-128 6 0 -815 0 -816 6220 0 6220 0 0 931 0 931 -37 -6 c-21 -3 -72 -10 -113
-14 -41 -5 -84 -13 -95 -19 -11 -6 -32 -9 -48 -6 -15 3 -48 2 -74 -3 -45 -7
-46 -8 -18 -14 l30 -7 -40 -8 c-26 -5 -40 -4 -43 3 -2 7 -13 6 -35 -3 -18 -7
-53 -16 -79 -20 -27 -4 -48 -11 -48 -17 0 -5 -46 -9 -102 -8 -57 0 -121 -2
-143 -3 -22 -2 -87 -7 -145 -12 -58 -4 -109 -9 -115 -10 -5 -1 -21 -5 -35 -8
-43 -11 -250 -21 -377 -20 -68 1 -123 -2 -123 -7 0 -4 -44 -8 -97 -7 -54 0
-135 -2 -180 -6 -53 -4 -92 -3 -110 4 -15 7 -93 12 -173 13 -80 1 -150 5 -157
9 -6 4 -24 2 -40 -4 -56 -22 -71 -23 -253 -26 -108 -2 -189 -8 -197 -14 -6 -6
-17 -8 -23 -4 -15 9 -12 45 9 107 10 31 24 82 31 114 13 67 51 188 109 353 55
153 97 329 116 486 32 263 18 405 -72 697 -4 13 5 19 38 28 43 12 113 43 135
61 9 7 5 30 -13 87 -14 42 -29 97 -33 122 -5 25 -18 83 -29 130 -23 98 -46
367 -45 520 0 74 7 130 23 189 20 76 22 115 26 385 4 239 2 313 -10 361 -29
119 -42 211 -38 250 4 32 0 44 -16 59 -16 15 -21 31 -21 69 0 33 -7 61 -21 84
-22 35 -48 129 -49 176 0 17 -5 27 -15 27 -8 0 -18 12 -21 27 -4 15 -15 41
-25 58 -9 16 -27 62 -38 100 -19 61 -37 105 -74 179 -5 11 -15 54 -21 95 -12
78 -17 84 -61 74z m3 -427 c8 -31 22 -53 46 -71 42 -32 52 -54 31 -69 -15 -11
-14 -20 5 -95 21 -81 21 -84 4 -117 -17 -32 -17 -34 1 -54 13 -15 17 -31 15
-63 -2 -23 -4 -81 -3 -129 0 -59 -3 -88 -11 -88 -6 0 -4 -4 4 -10 27 -17 5
-17 -45 -1 -45 15 -50 19 -47 44 3 33 -1 34 -30 5 -21 -21 -23 -22 -26 -4 -3
14 -6 16 -12 6 -4 -7 -15 -10 -25 -7 -9 4 -14 11 -10 17 4 6 -11 8 -42 4 -35
-5 -55 -14 -75 -35 -15 -16 -31 -29 -35 -29 -5 0 0 46 10 103 11 56 20 120 22
143 1 22 8 51 15 64 7 13 13 46 14 74 1 28 7 60 14 71 30 53 52 119 42 129
-18 18 -10 36 23 52 19 9 45 35 60 60 15 24 30 44 35 44 4 0 13 -20 20 -44z
m-153 -655 c-6 -5 -21 -12 -35 -15 -24 -7 -24 -6 -6 8 21 17 57 23 41 7z
m-157 -2832 c17 -6 35 -20 39 -32 9 -25 7 -374 -2 -455 -5 -42 -9 -51 -19 -43
-16 13 -99 4 -141 -16 -64 -30 -85 -45 -85 -59 0 -19 -17 -18 -49 6 -29 20
-190 215 -257 310 -55 79 -91 120 -136 157 l-39 32 38 10 c21 5 61 12 88 16
101 13 479 76 484 80 8 8 47 5 79 -6z m-306 -907 c-7 -2 -9 -9 -6 -15 5 -9 4
-9 -6 0 -15 13 -4 37 13 26 8 -5 8 -8 -1 -11z m-7392 -172 c0 -34 -4 -35 -43
-17 -32 14 -35 27 -8 27 11 0 23 5 26 10 12 20 25 9 25 -20z m65 -50 c3 -5 -1
-10 -9 -10 -8 0 -18 5 -21 10 -3 6 1 10 9 10 8 0 18 -4 21 -10z"/>
<path d="M5536 6151 c-3 -5 -15 -7 -26 -4 -23 6 -70 -33 -70 -58 0 -24 -61
-80 -85 -78 -11 1 -33 -3 -48 -9 -16 -7 -32 -12 -36 -12 -4 0 -22 -14 -39 -31
-33 -32 -82 -65 -114 -75 -10 -4 -18 -14 -18 -23 -1 -9 -9 -26 -18 -37 -16
-18 -26 -21 -70 -16 -29 2 -52 8 -52 12 0 4 -20 29 -44 55 -43 46 -45 47 -58
26 -8 -14 -23 -21 -43 -21 -19 0 -35 -7 -42 -19 -12 -19 -55 -33 -70 -22 -14
10 -43 77 -43 100 0 27 -36 28 -64 2 -12 -10 -42 -24 -67 -30 -36 -10 -47 -19
-57 -43 -8 -21 -16 -29 -27 -24 -10 4 -19 -3 -27 -19 -6 -14 -19 -25 -29 -25
-9 0 -19 -7 -23 -15 -3 -8 -15 -15 -26 -15 -15 0 -20 -7 -20 -25 0 -14 -4 -25
-10 -25 -5 0 -15 -18 -21 -40 -11 -35 -16 -40 -43 -40 -26 0 -34 -7 -48 -39
-10 -20 -18 -40 -18 -44 0 -4 -11 -31 -25 -61 -14 -30 -25 -61 -25 -69 0 -20
-30 -77 -41 -77 -5 0 -9 -7 -9 -15 0 -8 -9 -24 -20 -35 -11 -11 -20 -27 -20
-35 0 -8 -9 -15 -19 -15 -11 0 -21 -5 -23 -12 -2 -6 -17 10 -34 35 -16 26 -32
47 -36 47 -5 0 -8 7 -8 15 0 12 -3 12 -18 -2 -11 -10 -17 -21 -15 -26 5 -8
-12 -66 -32 -112 -20 -46 -45 -154 -38 -171 3 -8 10 -14 16 -14 6 0 8 -3 4 -6
-12 -12 23 -36 41 -29 22 10 92 6 113 -6 13 -7 19 -2 29 21 11 28 35 38 73 31
6 -1 163 -8 249 -11 4 0 22 -14 40 -32 36 -35 46 -71 19 -66 -9 1 -22 -1 -28
-5 -7 -5 -13 -4 -13 2 0 5 5 11 12 13 15 5 1 28 -18 28 -10 0 -14 -9 -12 -30
1 -17 8 -30 15 -30 7 0 13 -7 13 -15 0 -14 -18 -20 -49 -16 -7 2 -10 -2 -6 -8
3 -6 2 -11 -4 -11 -5 0 -13 -10 -17 -22 -6 -19 -8 -20 -18 -7 -26 36 -100 27
-136 -16 -14 -17 -6 -50 10 -40 11 7 13 -6 4 -29 -3 -9 -16 -16 -28 -16 -12 0
-28 -6 -34 -12 -7 -7 -16 -13 -20 -14 -28 -4 -72 -28 -72 -40 0 -8 -6 -14 -14
-14 -10 0 -12 -7 -9 -21 4 -13 0 -26 -9 -33 -8 -6 -25 -44 -38 -85 -27 -85
-48 -111 -88 -111 -16 0 -47 -9 -70 -20 -22 -11 -57 -20 -76 -20 -25 0 -38 6
-46 20 -11 20 -60 29 -60 11 0 -12 -40 -21 -116 -26 -35 -2 -72 -9 -82 -14
-11 -6 -27 -10 -38 -11 -10 0 -28 -1 -39 -1 -11 -1 -33 2 -50 5 -26 7 -32 4
-47 -21 -9 -16 -18 -51 -19 -79 -2 -27 -7 -58 -12 -69 -6 -11 -13 -26 -16 -33
-3 -8 -10 -13 -16 -13 -14 0 -33 -39 -28 -58 3 -12 -3 -17 -19 -18 -16 -2 -38
14 -73 52 -62 67 -88 102 -91 122 -4 24 -17 33 -42 26 -18 -4 -20 -8 -11 -20
7 -8 8 -13 3 -12 -5 1 -19 1 -31 0 -20 -1 -23 -7 -23 -39 0 -24 -7 -46 -20
-60 -11 -12 -20 -25 -20 -30 0 -5 -11 -15 -25 -22 -26 -14 -52 -81 -39 -101 3
-6 0 -9 -7 -7 -17 3 -59 -31 -59 -48 0 -38 146 -18 173 23 4 7 15 13 22 13 8
0 15 3 15 8 0 4 7 16 15 26 11 15 17 17 29 7 10 -9 16 -9 21 -1 15 24 55 31
80 14 14 -9 22 -21 19 -26 -4 -6 1 -8 12 -4 11 3 25 2 32 -3 10 -6 8 -14 -8
-34 -13 -17 -17 -27 -9 -27 7 0 9 -3 6 -7 -4 -3 0 -11 9 -18 23 -16 72 -7 79
16 4 10 17 27 31 38 13 10 24 23 24 28 0 5 6 21 13 36 16 35 46 45 64 21 9
-13 23 -18 43 -16 17 2 30 -1 30 -7 0 -6 -11 -11 -24 -11 -14 0 -28 -4 -31
-10 -3 -5 -13 -10 -21 -10 -8 0 -12 5 -9 10 13 21 -15 9 -33 -15 -11 -14 -27
-25 -35 -25 -8 0 -18 -7 -21 -16 -4 -12 -2 -15 9 -11 8 4 17 2 20 -2 6 -11
-20 -33 -29 -24 -4 4 -4 0 0 -10 4 -12 1 -17 -10 -17 -9 0 -16 -8 -16 -17 0
-15 -10 -18 -50 -19 -28 -1 -50 2 -50 6 0 4 -9 10 -21 13 -13 3 -19 12 -17 24
2 12 -4 19 -19 21 -13 2 -23 7 -23 12 0 5 -13 7 -30 5 -16 -2 -30 0 -30 5 0 6
-9 10 -20 10 -11 0 -20 -4 -20 -10 0 -5 -8 -10 -17 -10 -9 0 -27 -10 -39 -21
l-23 -21 31 -38 c16 -21 27 -43 23 -49 -3 -6 0 -11 8 -11 8 0 20 -7 27 -15 7
-8 22 -15 34 -15 13 0 26 -10 34 -27 15 -33 15 -53 1 -53 -6 0 -9 -7 -6 -15 4
-8 2 -17 -3 -20 -16 -10 -12 -35 5 -35 8 0 15 -9 15 -21 0 -11 12 -35 26 -53
29 -36 41 -91 23 -112 -6 -7 -8 -17 -5 -22 3 -6 -1 -15 -9 -22 -10 -9 -15 -9
-15 -1 0 6 -5 11 -12 11 -6 0 -4 -8 7 -20 20 -22 13 -62 -7 -42 -7 7 -21 12
-32 12 -12 0 -27 4 -35 9 -12 8 -12 13 3 35 15 23 15 27 1 32 -8 3 -15 12 -15
20 0 8 -4 14 -10 14 -5 0 -10 9 -10 19 0 10 -8 22 -17 25 -12 5 -14 9 -5 18
18 18 14 28 -11 28 -17 0 -23 -6 -25 -25 -1 -14 5 -28 15 -33 10 -6 13 -14 8
-22 -11 -17 -17 -93 -8 -87 5 3 8 -13 8 -36 0 -39 2 -43 45 -63 44 -21 91 -28
280 -39 75 -5 88 -8 108 -31 12 -14 22 -31 22 -38 0 -7 30 -23 68 -36 37 -13
79 -32 94 -43 41 -30 128 -47 154 -30 12 7 61 18 109 25 l88 11 26 -32 c17
-21 35 -31 52 -31 15 0 40 -7 55 -15 36 -18 62 -18 139 0 32 8 60 13 62 12 1
-2 3 -20 5 -41 1 -26 10 -44 27 -57 18 -15 21 -23 13 -31 -8 -8 -18 -6 -38 7
-26 17 -28 17 -42 -1 -8 -11 -20 -33 -27 -50 -8 -17 -41 -58 -74 -92 -34 -33
-59 -67 -58 -74 2 -7 2 -10 0 -5 -10 16 -21 5 -25 -23 -5 -30 20 -70 43 -70 6
0 7 -5 4 -10 -4 -6 7 -13 25 -16 17 -4 37 -16 45 -26 7 -11 18 -18 23 -14 5 3
18 -1 28 -9 34 -27 106 -55 138 -55 18 0 36 -4 42 -8 10 -9 114 -37 178 -47
34 -6 42 -3 61 21 l22 27 64 -12 c106 -21 168 -25 244 -15 61 7 188 -17 224
-43 14 -11 41 -25 59 -32 40 -17 65 -1 56 35 -8 29 7 31 31 4 10 -12 25 -18
33 -15 7 3 23 0 34 -6 22 -12 112 -3 103 11 -7 11 22 33 35 25 5 -3 10 -12 10
-20 0 -7 12 -15 28 -17 20 -2 26 -8 24 -22 -2 -11 3 -25 11 -31 8 -5 17 -26
20 -45 3 -19 8 -44 10 -55 3 -11 6 -22 6 -25 3 -19 102 -79 140 -85 24 -4 58
-13 75 -20 17 -7 97 -15 177 -19 123 -5 149 -4 159 9 7 8 18 15 24 15 6 0 28
29 49 65 21 35 47 67 57 70 25 8 17 54 -17 104 -14 20 -23 45 -20 58 3 15 0
20 -10 16 -7 -3 -13 0 -13 7 0 6 -4 8 -10 5 -5 -3 -10 1 -10 9 0 9 -9 25 -20
36 -11 11 -20 25 -20 30 0 6 -4 10 -10 10 -5 0 -10 8 -10 18 0 10 -5 23 -10
28 -13 13 -2 44 15 44 7 0 15 8 18 18 2 11 17 22 35 25 18 4 46 23 66 44 l34
38 96 -1 c53 -1 96 2 96 5 0 16 82 53 104 47 24 -6 110 26 121 44 3 6 3 16 -2
23 -14 22 -9 111 7 124 21 17 27 16 33 -7 5 -20 27 -28 27 -10 0 6 8 10 18 11
10 0 12 3 5 6 -7 2 -13 12 -13 20 0 11 7 14 26 9 15 -4 39 -10 55 -13 33 -6
40 -36 12 -51 -25 -15 -9 -42 26 -42 35 0 48 15 25 28 -10 6 -15 16 -11 26 8
20 27 21 27 1 0 -21 20 -19 21 3 0 10 3 12 6 5 2 -7 11 -13 19 -13 8 0 14 -5
14 -11 0 -15 61 -3 71 13 6 9 13 8 27 -5 26 -24 103 -22 152 3 22 11 44 20 51
20 6 0 28 13 49 30 21 17 43 30 49 30 6 0 11 9 11 19 0 11 6 21 13 24 6 2 8 8
4 13 -4 5 -12 2 -17 -6 -7 -11 -12 -10 -27 7 -15 18 -33 22 -112 27 -70 4 -99
10 -114 23 -15 13 -18 14 -12 3 6 -10 1 -9 -13 3 -11 11 -26 16 -31 12 -11 -6
-16 43 -11 108 1 25 -1 28 -20 22 -11 -4 -27 -2 -34 4 -7 6 -39 13 -72 17 -57
6 -114 23 -114 34 0 3 -12 6 -27 5 -34 0 -39 30 -10 59 20 19 20 20 -13 48
-17 16 -50 64 -71 107 l-39 77 -58 -3 c-31 -1 -66 -7 -77 -12 -83 -38 -184
-74 -203 -73 -13 1 -33 -5 -45 -13 -12 -8 -38 -15 -58 -15 -53 0 -62 36 -14
54 19 8 19 8 -2 19 -13 5 -23 14 -23 19 0 5 -10 3 -22 -4 -13 -7 -36 -14 -53
-15 -16 0 -50 -6 -75 -12 -25 -5 -64 -10 -86 -11 -48 0 -96 -22 -104 -46 -4
-10 -19 -18 -36 -20 -53 -4 -139 -26 -145 -36 -4 -5 -47 -13 -97 -17 -96 -8
-118 -19 -124 -62 -2 -20 -8 -23 -31 -21 -16 2 -35 -2 -42 -8 -7 -6 -25 -8
-39 -4 -19 4 -35 -1 -65 -23 l-40 -29 57 -12 c99 -22 207 -4 186 29 -9 14 22
24 79 24 31 0 57 -3 57 -7 0 -5 9 -8 20 -8 11 0 20 -4 20 -10 0 -13 -12 -13
-45 0 -23 9 -26 8 -21 -5 4 -10 -8 -24 -37 -43 -23 -15 -52 -36 -65 -47 -13
-11 -40 -22 -60 -25 -31 -4 -37 -9 -36 -28 0 -17 -3 -21 -18 -16 -22 7 -68
-32 -68 -59 0 -13 -7 -17 -29 -15 -16 1 -36 -4 -45 -11 -17 -14 -22 -41 -7
-41 5 0 11 -9 14 -20 6 -24 -5 -26 -23 -5 -7 8 -17 12 -22 9 -12 -8 -1 36 13
50 17 18 9 23 -38 23 -47 0 -58 -6 -79 -42 -7 -11 -18 -19 -27 -17 -9 1 -17
-8 -21 -22 -3 -14 -13 -32 -22 -41 -15 -15 -15 -17 2 -30 18 -14 17 -14 -8
-15 -16 0 -27 -3 -27 -7 7 -42 -53 -46 -97 -8 -58 51 -71 57 -60 30 4 -11 -6
-16 -44 -21 -28 -4 -56 -14 -66 -25 -13 -14 -21 -16 -35 -8 -11 5 -24 7 -28 4
-5 -3 -30 0 -55 7 -35 9 -43 15 -34 25 8 10 4 13 -22 13 -18 0 -50 5 -72 12
-36 11 -39 14 -36 40 3 16 1 31 -4 34 -16 10 -8 20 17 22 15 1 28 -4 31 -13 4
-8 12 -15 20 -15 8 0 14 -5 14 -12 0 -6 3 -9 6 -5 4 3 23 -1 43 -9 l36 -15
-28 29 c-15 15 -25 31 -21 35 3 3 -3 16 -15 28 -22 24 -28 49 -12 49 6 0 13
-4 16 -10 11 -18 33 -11 28 9 -3 12 4 28 17 41 22 22 22 22 57 4 19 -11 40
-26 46 -34 9 -11 31 -15 77 -15 71 0 91 -15 62 -47 -13 -16 -13 -18 4 -25 11
-4 24 -13 30 -21 13 -17 38 -7 27 11 -4 7 -6 24 -4 39 2 19 -5 35 -24 52 -14
13 -28 40 -32 59 -4 29 -8 33 -29 29 -31 -6 -48 9 -76 65 -13 26 -33 49 -46
54 -17 7 -23 15 -19 28 3 12 -4 28 -19 42 -25 23 -32 49 -13 49 6 0 8 11 4 29
-4 21 -2 30 11 35 9 4 14 9 11 12 -3 3 -1 18 5 33 5 14 11 37 13 50 1 13 6 26
11 30 5 3 15 17 22 30 12 20 12 25 0 32 -7 5 -18 9 -25 9 -26 0 -89 80 -75 95
4 4 7 12 7 17 0 6 6 13 13 16 6 2 12 0 12 -5 0 -5 9 -19 21 -32 11 -12 18 -28
15 -36 -3 -8 -2 -17 3 -19 4 -3 17 15 29 39 22 45 38 55 59 34 16 -16 45 18
37 45 -4 11 -3 18 1 14 5 -5 13 2 20 15 6 12 17 21 25 19 8 -2 10 3 6 13 -3 9
1 26 9 38 15 21 19 18 16 -15 -3 -25 33 -18 46 9 7 15 7 21 1 17 -14 -9 -28
15 -28 49 0 22 -4 27 -25 27 -14 0 -25 3 -25 8 1 10 26 42 34 42 3 0 24 12 45
26 32 20 41 34 46 66 7 41 16 43 22 5 2 -12 8 -23 13 -25 6 -2 6 -11 -1 -23
-6 -11 -8 -25 -6 -32 3 -7 11 3 18 21 8 17 17 32 21 32 4 0 8 7 8 15 0 8 9 23
20 32 11 10 20 26 20 35 0 10 27 44 61 76 55 52 109 132 109 164 0 10 44 82
60 98 3 3 6 16 8 30 4 37 22 80 53 130 15 25 35 70 44 100 27 88 34 102 50 96
9 -3 15 0 15 8 0 7 50 63 110 124 61 61 110 116 110 122 0 6 4 9 9 6 5 -4 7 3
4 14 -3 12 2 29 11 39 9 10 13 20 10 23 -8 8 34 88 46 88 6 0 10 11 10 25 0
14 4 25 8 25 5 0 19 35 31 78 13 42 27 85 32 94 17 33 11 48 -20 48 -20 0 -30
-6 -34 -20 -3 -13 -13 -20 -29 -20 -20 1 -21 2 -8 13 21 16 15 107 -6 107 -10
0 -14 12 -14 40 0 22 5 40 10 40 6 0 2 17 -8 38 -10 20 -17 45 -14 55 2 12 -3
20 -17 24 -12 3 -24 16 -27 28 -3 13 -12 26 -19 29 -8 3 -18 20 -23 38 -7 26
-13 32 -30 30 -20 -3 -22 1 -22 37 0 30 4 41 15 41 25 0 19 65 -9 94 -25 28
-32 31 -40 17z m-516 -355 c0 -3 -4 -8 -10 -11 -5 -3 -10 -1 -10 4 0 6 5 11
10 11 6 0 10 -2 10 -4z m-757 -1006 c14 -27 14 -30 -7 -43 -15 -10 -28 -12
-46 -5 -25 9 -25 9 -5 26 12 9 24 25 28 35 9 23 13 22 30 -13z m92 -20 c3 -6
3 -15 -1 -21 -4 -8 -13 -4 -25 12 -10 13 -19 28 -19 32 0 9 36 -9 45 -23z
m308 -452 c29 -14 38 -35 10 -22 -10 4 -35 9 -55 12 -21 2 -35 8 -32 13 8 13
45 11 77 -3z m-563 -18 c-8 -5 -22 -9 -30 -9 -10 0 -8 3 5 9 27 12 43 12 25 0z
m64 4 c9 -3 16 -14 16 -23 -1 -15 -2 -15 -13 0 -7 9 -19 18 -27 22 -8 3 -10 6
-3 6 6 1 18 -2 27 -5z m141 -14 c3 -5 15 -10 26 -10 10 0 19 -4 19 -9 0 -6
-15 -5 -36 1 -20 5 -46 7 -58 4 -20 -5 -21 -5 -2 9 23 17 42 19 51 5z m211
-19 c-8 -12 -46 -21 -46 -11 0 9 18 18 38 19 7 1 11 -3 8 -8z m-296 -11 c0 -5
-4 -10 -9 -10 -6 0 -13 5 -16 10 -3 6 1 10 9 10 9 0 16 -4 16 -10z m-223 -22
c-3 -8 -6 -5 -6 6 -1 11 2 17 5 13 3 -3 4 -12 1 -19z m833 -13 c0 -7 7 -18 15
-25 8 -7 15 -19 15 -28 0 -13 -3 -12 -20 3 -11 10 -20 24 -20 31 0 7 -7 17
-16 22 -10 5 -14 15 -10 21 9 14 36 -4 36 -24z m-380 21 c0 -3 -4 -8 -10 -11
-5 -3 -10 -1 -10 4 0 6 5 11 10 11 6 0 10 -2 10 -4z m-539 -84 c-23 -21 -41
-43 -41 -49 0 -14 -39 -48 -46 -40 -4 4 1 9 10 13 9 3 16 15 16 25 0 10 9 24
20 31 11 7 20 18 20 24 0 10 34 32 53 33 5 1 -10 -16 -32 -37z m1015 -13 c3
-5 -4 -9 -15 -9 -12 0 -21 -5 -21 -11 0 -5 -4 -7 -10 -4 -5 3 -10 14 -10 24 0
14 6 17 25 13 14 -2 28 -8 31 -13z m-1446 -149 c-20 -13 -40 -13 -40 0 0 6 12
10 28 10 21 0 24 -2 12 -10z m-363 -285 c9 -25 -4 -29 -17 -6 -7 15 -7 21 0
21 6 0 13 -7 17 -15z m-57 -116 c0 -29 -5 -41 -21 -49 -30 -16 -46 -6 -44 27
4 62 4 62 35 61 28 -1 30 -4 30 -39z m1382 -263 c21 -25 23 -59 4 -75 -20 -17
-62 5 -77 41 -10 24 -9 31 6 48 19 21 42 17 67 -14z m-1562 -42 c0 -8 -5 -12
-10 -9 -6 4 -8 11 -5 16 9 14 15 11 15 -7z m2944 -129 c-25 -19 -40 -19 -24 0
7 8 20 15 28 15 13 0 12 -3 -4 -15z m593 -85 c23 -11 45 -24 48 -30 9 -15 25
-12 25 4 0 31 20 25 36 -11 10 -21 23 -41 28 -45 6 -4 -1 -8 -16 -8 -15 0 -31
6 -35 13 -4 6 -26 25 -47 41 l-39 29 5 -41 c6 -38 5 -40 -16 -33 -12 5 -23 20
-26 36 -4 23 -13 31 -40 38 -34 10 -34 10 -10 17 38 12 43 11 87 -10z m-1997
-50 c30 -30 26 -52 -7 -48 -23 2 -29 8 -31 36 -4 37 9 41 38 12z m646 -235
c-17 -26 -42 -26 -38 0 6 42 10 46 32 33 17 -11 18 -15 6 -33z m194 -60 c0 -8
6 -15 13 -15 19 -1 -14 -17 -51 -25 -30 -6 -33 -5 -30 12 2 10 -3 23 -12 30
-12 10 -7 12 33 13 35 0 47 -4 47 -15z"/>
<path d="M3035 3610 c-3 -5 -1 -10 4 -10 6 0 11 5 11 10 0 6 -2 10 -4 10 -3 0
-8 -4 -11 -10z"/>
<path d="M4265 4840 c3 -5 10 -10 16 -10 5 0 9 5 9 10 0 6 -7 10 -16 10 -8 0
-12 -4 -9 -10z"/>
<path d="M3468 4493 c6 -2 18 -2 25 0 6 3 1 5 -13 5 -14 0 -19 -2 -12 -5z"/>
<path d="M2734 4269 l-19 -22 49 7 c56 7 67 13 46 26 -25 16 -56 11 -76 -11z"/>
<path d="M2820 4243 c1 -20 19 -35 35 -29 14 5 15 9 5 21 -13 16 -40 21 -40 8z"/>
<path d="M2237 3963 c-16 -15 -4 -21 43 -25 28 -1 50 -2 50 -1 0 1 -7 9 -16
17 -15 16 -65 22 -77 9z"/>
<path d="M2015 3950 c-3 -5 -17 -10 -30 -10 -13 0 -27 -4 -30 -10 -3 -5 -15
-10 -26 -10 -12 0 -19 -7 -19 -18 0 -33 13 -33 41 -2 20 22 33 28 46 23 16 -7
15 -8 -4 -11 -13 -2 -23 -7 -23 -12 0 -5 14 -7 31 -3 21 4 34 1 39 -8 7 -10
14 -11 32 -2 13 6 34 11 47 11 13 1 29 6 35 13 8 8 5 10 -12 4 -17 -5 -27 -2
-37 12 -10 13 -14 14 -15 4 0 -12 -3 -11 -17 1 -10 9 -24 13 -32 10 -8 -3 -11
0 -7 7 4 6 3 11 -3 11 -5 0 -13 -4 -16 -10z"/>
<path d="M2436 3951 c-4 -5 0 -11 6 -14 11 -3 11 -9 0 -26 -12 -20 -11 -21 38
-19 28 1 49 6 47 11 -1 5 -5 7 -8 5 -3 -2 -22 9 -42 25 -20 15 -38 23 -41 18z"/>
<path d="M3030 3926 c0 -2 7 -6 15 -10 8 -3 15 -1 15 4 0 6 -7 10 -15 10 -8 0
-15 -2 -15 -4z"/>
<path d="M2267 3900 c-3 -11 -1 -23 4 -26 5 -3 6 -16 3 -30 -4 -14 -2 -24 5
-24 6 0 10 -4 9 -9 -2 -5 2 -10 7 -11 6 -2 18 14 28 35 18 37 18 38 -4 61 -27
29 -45 31 -52 4z"/>
<path d="M2574 3859 c-8 -13 22 -46 33 -35 4 4 1 11 -7 16 -14 9 -7 14 13 11
5 -1 6 3 2 9 -8 13 -32 13 -41 -1z"/>
<path d="M2171 3817 c-1 -14 -4 -15 -20 -6 -22 14 -51 6 -51 -15 0 -19 52 -28
68 -11 8 7 12 21 9 31 -4 17 -5 17 -6 1z"/>
<path d="M2516 3771 c-3 -22 -3 -53 0 -71 6 -26 3 -32 -14 -37 -11 -2 -22 -13
-25 -24 -3 -13 -14 -19 -31 -19 -30 0 -32 -9 -11 -50 20 -38 51 -56 62 -35 5
8 24 16 43 18 42 5 50 24 17 36 -24 9 -25 13 -22 76 2 53 7 70 24 85 l22 18
-29 21 -30 21 -6 -39z"/>
<path d="M4741 3695 c0 -11 8 -28 19 -38 19 -16 20 -16 20 3 0 11 -6 20 -14
20 -8 0 -17 8 -19 18 -4 14 -5 14 -6 -3z"/>
<path d="M4810 3690 c-13 -8 -12 -10 3 -10 9 0 17 5 17 10 0 12 -1 12 -20 0z"/>
<path d="M171 3660 c-4 -3 -7 -17 -6 -32 1 -20 12 -35 41 -54 60 -41 221 -64
239 -33 3 4 -13 26 -35 48 -22 22 -40 44 -40 50 0 5 -10 13 -22 18 -25 8 -165
11 -177 3z"/>
<path d="M1400 3640 c-13 -8 -12 -10 3 -10 9 0 17 5 17 10 0 12 -1 12 -20 0z"/>
<path d="M103 3624 c-6 -16 14 -36 31 -31 5 2 10 11 12 20 1 9 -2 15 -7 11 -5
-3 -9 0 -9 5 0 17 -20 13 -27 -5z"/>
<path d="M1996 3623 c-11 -11 -6 -23 8 -23 8 0 17 4 20 9 7 10 -19 23 -28 14z"/>
<path d="M4670 3583 c0 -4 5 -15 10 -23 8 -13 10 -13 10 2 0 9 -4 20 -10 23
-5 3 -10 3 -10 -2z"/>
<path d="M2611 3531 c-27 -21 -22 -36 14 -43 29 -6 45 26 24 48 -12 11 -18 10
-38 -5z"/>
<path d="M2674 3454 c-4 -14 -2 -30 5 -37 6 -6 11 -7 11 -3 0 5 7 3 15 -4 22
-18 27 -8 20 34 -9 44 -41 51 -51 10z"/>
<path d="M2275 3261 c-6 -5 -21 -11 -34 -13 -14 -1 -26 -10 -28 -18 -4 -13 -3
-13 6 0 8 12 11 6 11 -24 0 -33 2 -37 15 -26 10 9 33 11 70 7 58 -6 75 2 49
23 -8 7 -12 20 -10 27 4 10 1 13 -13 8 -12 -3 -21 0 -25 10 -6 17 -27 20 -41
6z"/>
<path d="M2211 3194 c0 -11 3 -14 6 -6 3 7 2 16 -1 19 -3 4 -6 -2 -5 -13z"/>
<path d="M4900 3195 c-10 -13 -9 -15 9 -15 12 0 21 6 21 15 0 8 -4 15 -9 15
-5 0 -14 -7 -21 -15z"/>
<path d="M5215 3190 c-4 -6 2 -10 12 -10 15 0 16 -2 3 -10 -12 -8 -12 -10 3
-16 22 -8 29 -2 21 19 -7 19 -31 29 -39 17z"/>
<path d="M4842 3163 c-15 -6 -6 -23 14 -23 8 0 14 7 14 15 0 15 -6 17 -28 8z"/>
<path d="M4935 3120 c-8 -13 -1 -24 14 -19 6 3 7 10 2 18 -6 10 -10 10 -16 1z"/>
<path d="M4620 3011 c0 -6 5 -13 10 -16 6 -3 10 1 10 9 0 9 -4 16 -10 16 -5 0
-10 -4 -10 -9z"/>
<path d="M4890 2956 c0 -9 5 -16 10 -16 6 0 10 4 10 9 0 6 -4 13 -10 16 -5 3
-10 -1 -10 -9z"/>
<path d="M6178 2553 c-10 -2 -18 -11 -18 -19 0 -12 4 -12 25 2 36 23 34 28 -7
17z"/>
<path d="M6396 1585 c4 -10 20 -15 45 -15 28 0 39 4 39 15 0 11 -12 15 -45 15
-35 0 -43 -3 -39 -15z"/>
<path d="M3255 1250 c-3 -6 1 -7 9 -4 18 7 21 14 7 14 -6 0 -13 -4 -16 -10z"/>
</g>
</svg>
